<svg width="228" height="64" viewBox="0 0 228 64" fill="none" xmlns="http://www.w3.org/2000/svg">
<mask id="path-1-outside-1_602_18" maskUnits="userSpaceOnUse" x="-1" y="-1" width="230" height="66" fill="black">
<rect fill="white" x="-1" y="-1" width="230" height="66"/>
<path d="M0.344 3.2H19.48C25.4107 3.2 29.848 4.01066 32.792 5.632C35.7787 7.21067 37.272 9.89867 37.272 13.696C37.272 19.5413 33.752 23.04 26.712 24.192V24.32C35.2453 25.3867 39.512 29.0987 39.512 35.456C39.512 40.1067 37.7627 43.3707 34.264 45.248C30.7653 47.0827 25.7307 48 19.16 48H0.344V46.784H4.504V4.416H0.344V3.2ZM16.984 25.344V46.784H19.992C22.3387 46.784 23.9813 45.9733 24.92 44.352C25.8587 42.7307 26.328 40.3413 26.328 37.184V33.792C26.328 30.976 25.752 28.864 24.6 27.456C23.448 26.048 21.4 25.344 18.456 25.344H16.984ZM16.984 4.416V24.128H18.648C20.8667 24.128 22.4027 23.4667 23.256 22.144C24.152 20.7787 24.6 18.7093 24.6 15.936V12.928C24.6 9.77066 24.216 7.57333 23.448 6.336C22.68 5.056 21.208 4.416 19.032 4.416H16.984ZM65.6995 35.392V29.952C65.6995 25.8133 65.4648 22.8053 64.9955 20.928C64.5688 19.008 63.5448 18.048 61.9235 18.048C60.9848 18.048 60.2168 18.3253 59.6195 18.88C59.0648 19.392 58.6595 20.2667 58.4035 21.504C58.0195 23.424 57.8275 26.3467 57.8275 30.272V35.264C57.8275 39.9147 57.9555 42.7093 58.2115 43.648C58.5102 44.5867 58.8088 45.3547 59.1075 45.952C59.5768 46.976 60.4942 47.488 61.8595 47.488C63.5235 47.488 64.6115 46.528 65.1235 44.608C65.5075 43.2427 65.6995 40.1707 65.6995 35.392ZM61.7315 48.64C56.3982 48.64 52.3662 47.2747 49.6355 44.544C46.9048 41.8133 45.5395 37.9093 45.5395 32.832C45.5395 27.712 46.9902 23.7867 49.8915 21.056C52.8355 18.2827 56.9528 16.896 62.2435 16.896C67.5342 16.896 71.4808 18.176 74.0835 20.736C76.6862 23.2533 77.9875 27.1147 77.9875 32.32C77.9875 43.2 72.5688 48.64 61.7315 48.64ZM103.65 35.392V29.952C103.65 25.8133 103.415 22.8053 102.946 20.928C102.519 19.008 101.495 18.048 99.8735 18.048C98.9348 18.048 98.1668 18.3253 97.5695 18.88C97.0148 19.392 96.6095 20.2667 96.3535 21.504C95.9695 23.424 95.7775 26.3467 95.7775 30.272V35.264C95.7775 39.9147 95.9055 42.7093 96.1615 43.648C96.4602 44.5867 96.7588 45.3547 97.0575 45.952C97.5268 46.976 98.4442 47.488 99.8095 47.488C101.474 47.488 102.562 46.528 103.074 44.608C103.458 43.2427 103.65 40.1707 103.65 35.392ZM99.6815 48.64C94.3482 48.64 90.3162 47.2747 87.5855 44.544C84.8548 41.8133 83.4895 37.9093 83.4895 32.832C83.4895 27.712 84.9402 23.7867 87.8415 21.056C90.7855 18.2827 94.9028 16.896 100.194 16.896C105.484 16.896 109.431 18.176 112.034 20.736C114.636 23.2533 115.938 27.1147 115.938 32.32C115.938 43.2 110.519 48.64 99.6815 48.64ZM141.855 48V46.848H144.799L137.567 32L136.351 32.32V46.848H139.295V48H120.927V46.848H124.447V1.152H120.671V-3.8147e-06H136.351V31.04L137.375 30.656L151.775 18.688H145.76V17.536H158.368V18.688H153.888L146.271 25.152L157.344 46.848H159.647V48H141.855Z"/>
<path d="M165.287 48.64V37.184H166.055C167.164 40.896 168.658 43.4987 170.535 44.992C172.412 46.4853 174.759 47.232 177.575 47.232C181.927 47.232 184.103 45.8453 184.103 43.072C184.103 41.8773 183.57 40.9813 182.503 40.384C180.839 39.4453 178.706 38.72 176.103 38.208C173.202 37.44 170.77 36.416 168.807 35.136C166.46 33.6 165.287 31.168 165.287 27.84C165.287 24.512 166.311 21.8667 168.359 19.904C170.407 17.8987 173.138 16.896 176.551 16.896C178.642 16.896 180.796 17.3867 183.015 18.368C183.826 18.7093 184.444 18.88 184.871 18.88C185.298 18.88 185.66 18.7307 185.959 18.432C186.258 18.1333 186.62 17.5787 187.047 16.768H187.751V26.56H186.983C184.807 21.0133 181.436 18.24 176.871 18.24C174.866 18.24 173.372 18.6027 172.391 19.328C171.41 20.0107 170.919 20.8853 170.919 21.952C170.919 22.592 171.068 23.104 171.367 23.488C171.666 23.8293 171.9 24.0853 172.071 24.256C172.242 24.4267 172.519 24.6187 172.903 24.832C173.287 25.0027 173.607 25.152 173.863 25.28C174.119 25.3653 174.503 25.4933 175.015 25.664C175.57 25.8347 175.975 25.9413 176.231 25.984C179.132 26.7093 181.223 27.3493 182.503 27.904C183.783 28.416 184.999 29.056 186.151 29.824C188.498 31.4453 189.671 34.0693 189.671 37.696C189.671 41.28 188.604 44.0107 186.471 45.888C184.338 47.7227 181.415 48.64 177.703 48.64C175.058 48.64 172.498 48.0213 170.023 46.784C169.511 46.4427 169.106 46.272 168.807 46.272C167.868 46.272 166.951 47.0613 166.055 48.64H165.287ZM192.883 18.688V17.536H211.443V18.688H207.987L214.963 39.936L222.387 18.688H218.099V17.536H227.123V18.688H223.923L211.955 53.184C210.547 57.1947 208.968 59.9893 207.219 61.568C205.469 63.1893 203.336 64 200.819 64C198.301 64 196.317 63.424 194.867 62.272C193.416 61.12 192.691 59.648 192.691 57.856C192.691 56.064 193.16 54.6987 194.099 53.76C195.037 52.8213 196.275 52.352 197.811 52.352C201.352 52.352 203.123 53.824 203.123 56.768C203.123 57.408 202.995 58.176 202.739 59.072H200.499C200.157 60.0533 200.115 60.864 200.371 61.504C200.627 62.144 201.203 62.464 202.099 62.464C203.848 62.464 205.405 61.5893 206.771 59.84C208.136 58.1333 209.437 55.5093 210.675 51.968L212.083 48H206.451L195.507 18.688H192.883Z"/>
</mask>
<path d="M0.344 3.2H19.48C25.4107 3.2 29.848 4.01066 32.792 5.632C35.7787 7.21067 37.272 9.89867 37.272 13.696C37.272 19.5413 33.752 23.04 26.712 24.192V24.32C35.2453 25.3867 39.512 29.0987 39.512 35.456C39.512 40.1067 37.7627 43.3707 34.264 45.248C30.7653 47.0827 25.7307 48 19.16 48H0.344V46.784H4.504V4.416H0.344V3.2ZM16.984 25.344V46.784H19.992C22.3387 46.784 23.9813 45.9733 24.92 44.352C25.8587 42.7307 26.328 40.3413 26.328 37.184V33.792C26.328 30.976 25.752 28.864 24.6 27.456C23.448 26.048 21.4 25.344 18.456 25.344H16.984ZM16.984 4.416V24.128H18.648C20.8667 24.128 22.4027 23.4667 23.256 22.144C24.152 20.7787 24.6 18.7093 24.6 15.936V12.928C24.6 9.77066 24.216 7.57333 23.448 6.336C22.68 5.056 21.208 4.416 19.032 4.416H16.984ZM65.6995 35.392V29.952C65.6995 25.8133 65.4648 22.8053 64.9955 20.928C64.5688 19.008 63.5448 18.048 61.9235 18.048C60.9848 18.048 60.2168 18.3253 59.6195 18.88C59.0648 19.392 58.6595 20.2667 58.4035 21.504C58.0195 23.424 57.8275 26.3467 57.8275 30.272V35.264C57.8275 39.9147 57.9555 42.7093 58.2115 43.648C58.5102 44.5867 58.8088 45.3547 59.1075 45.952C59.5768 46.976 60.4942 47.488 61.8595 47.488C63.5235 47.488 64.6115 46.528 65.1235 44.608C65.5075 43.2427 65.6995 40.1707 65.6995 35.392ZM61.7315 48.64C56.3982 48.64 52.3662 47.2747 49.6355 44.544C46.9048 41.8133 45.5395 37.9093 45.5395 32.832C45.5395 27.712 46.9902 23.7867 49.8915 21.056C52.8355 18.2827 56.9528 16.896 62.2435 16.896C67.5342 16.896 71.4808 18.176 74.0835 20.736C76.6862 23.2533 77.9875 27.1147 77.9875 32.32C77.9875 43.2 72.5688 48.64 61.7315 48.64ZM103.65 35.392V29.952C103.65 25.8133 103.415 22.8053 102.946 20.928C102.519 19.008 101.495 18.048 99.8735 18.048C98.9348 18.048 98.1668 18.3253 97.5695 18.88C97.0148 19.392 96.6095 20.2667 96.3535 21.504C95.9695 23.424 95.7775 26.3467 95.7775 30.272V35.264C95.7775 39.9147 95.9055 42.7093 96.1615 43.648C96.4602 44.5867 96.7588 45.3547 97.0575 45.952C97.5268 46.976 98.4442 47.488 99.8095 47.488C101.474 47.488 102.562 46.528 103.074 44.608C103.458 43.2427 103.65 40.1707 103.65 35.392ZM99.6815 48.64C94.3482 48.64 90.3162 47.2747 87.5855 44.544C84.8548 41.8133 83.4895 37.9093 83.4895 32.832C83.4895 27.712 84.9402 23.7867 87.8415 21.056C90.7855 18.2827 94.9028 16.896 100.194 16.896C105.484 16.896 109.431 18.176 112.034 20.736C114.636 23.2533 115.938 27.1147 115.938 32.32C115.938 43.2 110.519 48.64 99.6815 48.64ZM141.855 48V46.848H144.799L137.567 32L136.351 32.32V46.848H139.295V48H120.927V46.848H124.447V1.152H120.671V-3.8147e-06H136.351V31.04L137.375 30.656L151.775 18.688H145.76V17.536H158.368V18.688H153.888L146.271 25.152L157.344 46.848H159.647V48H141.855Z" fill="#F1E971"/>
<path d="M165.287 48.64V37.184H166.055C167.164 40.896 168.658 43.4987 170.535 44.992C172.412 46.4853 174.759 47.232 177.575 47.232C181.927 47.232 184.103 45.8453 184.103 43.072C184.103 41.8773 183.57 40.9813 182.503 40.384C180.839 39.4453 178.706 38.72 176.103 38.208C173.202 37.44 170.77 36.416 168.807 35.136C166.46 33.6 165.287 31.168 165.287 27.84C165.287 24.512 166.311 21.8667 168.359 19.904C170.407 17.8987 173.138 16.896 176.551 16.896C178.642 16.896 180.796 17.3867 183.015 18.368C183.826 18.7093 184.444 18.88 184.871 18.88C185.298 18.88 185.66 18.7307 185.959 18.432C186.258 18.1333 186.62 17.5787 187.047 16.768H187.751V26.56H186.983C184.807 21.0133 181.436 18.24 176.871 18.24C174.866 18.24 173.372 18.6027 172.391 19.328C171.41 20.0107 170.919 20.8853 170.919 21.952C170.919 22.592 171.068 23.104 171.367 23.488C171.666 23.8293 171.9 24.0853 172.071 24.256C172.242 24.4267 172.519 24.6187 172.903 24.832C173.287 25.0027 173.607 25.152 173.863 25.28C174.119 25.3653 174.503 25.4933 175.015 25.664C175.57 25.8347 175.975 25.9413 176.231 25.984C179.132 26.7093 181.223 27.3493 182.503 27.904C183.783 28.416 184.999 29.056 186.151 29.824C188.498 31.4453 189.671 34.0693 189.671 37.696C189.671 41.28 188.604 44.0107 186.471 45.888C184.338 47.7227 181.415 48.64 177.703 48.64C175.058 48.64 172.498 48.0213 170.023 46.784C169.511 46.4427 169.106 46.272 168.807 46.272C167.868 46.272 166.951 47.0613 166.055 48.64H165.287ZM192.883 18.688V17.536H211.443V18.688H207.987L214.963 39.936L222.387 18.688H218.099V17.536H227.123V18.688H223.923L211.955 53.184C210.547 57.1947 208.968 59.9893 207.219 61.568C205.469 63.1893 203.336 64 200.819 64C198.301 64 196.317 63.424 194.867 62.272C193.416 61.12 192.691 59.648 192.691 57.856C192.691 56.064 193.16 54.6987 194.099 53.76C195.037 52.8213 196.275 52.352 197.811 52.352C201.352 52.352 203.123 53.824 203.123 56.768C203.123 57.408 202.995 58.176 202.739 59.072H200.499C200.157 60.0533 200.115 60.864 200.371 61.504C200.627 62.144 201.203 62.464 202.099 62.464C203.848 62.464 205.405 61.5893 206.771 59.84C208.136 58.1333 209.437 55.5093 210.675 51.968L212.083 48H206.451L195.507 18.688H192.883Z" fill="#BAAF0F"/>
<path d="M0.344 3.2V2.2H-0.656V3.2H0.344ZM32.792 5.632L32.3096 6.50794L32.3171 6.51208L32.3247 6.51609L32.792 5.632ZM26.712 24.192L26.5505 23.2051L25.712 23.3423V24.192H26.712ZM26.712 24.32H25.712V25.2028L26.588 25.3123L26.712 24.32ZM34.264 45.248L34.7284 46.1337L34.7368 46.1292L34.264 45.248ZM0.344 48H-0.656V49H0.344V48ZM0.344 46.784V45.784H-0.656V46.784H0.344ZM4.504 46.784V47.784H5.504V46.784H4.504ZM4.504 4.416H5.504V3.416H4.504V4.416ZM0.344 4.416H-0.656V5.416H0.344V4.416ZM16.984 25.344V24.344H15.984V25.344H16.984ZM16.984 46.784H15.984V47.784H16.984V46.784ZM24.92 44.352L25.7854 44.853L25.7854 44.853L24.92 44.352ZM24.6 27.456L23.826 28.0892L23.826 28.0892L24.6 27.456ZM16.984 4.416V3.416H15.984V4.416H16.984ZM16.984 24.128H15.984V25.128H16.984V24.128ZM23.256 22.144L22.4199 21.5953L22.4157 21.6019L23.256 22.144ZM23.448 6.336L22.5905 6.85049L22.5944 6.85696L22.5984 6.86336L23.448 6.336ZM0.344 4.2H19.48V2.2H0.344V4.2ZM19.48 4.2C25.3531 4.2 29.5871 5.0086 32.3096 6.50794L33.2744 4.75605C30.1089 3.01273 25.4682 2.2 19.48 2.2V4.2ZM32.3247 6.51609C33.6642 7.22413 34.6345 8.15965 35.2778 9.31764C35.9247 10.482 36.272 11.9278 36.272 13.696H38.272C38.272 11.6669 37.8726 9.86997 37.0262 8.34636C36.1762 6.81634 34.9064 5.61853 33.2593 4.7479L32.3247 6.51609ZM36.272 13.696C36.272 16.4034 35.4649 18.4663 33.927 19.9947C32.3667 21.5456 29.9513 22.6486 26.5505 23.2051L26.8735 25.1789C30.5127 24.5834 33.3773 23.3611 35.337 21.4133C37.3192 19.4431 38.272 16.8339 38.272 13.696H36.272ZM25.712 24.192V24.32H27.712V24.192H25.712ZM26.588 25.3123C30.7534 25.833 33.7314 26.9844 35.6556 28.6584C37.5421 30.2997 38.512 32.5266 38.512 35.456H40.512C40.512 32.0281 39.3486 29.2203 36.9684 27.1496C34.6259 25.1116 31.204 23.8737 26.836 23.3277L26.588 25.3123ZM38.512 35.456C38.512 39.8144 36.9032 42.697 33.7912 44.3668L34.7368 46.1292C38.6221 44.0444 40.512 40.3989 40.512 35.456H38.512ZM33.7996 44.3624C30.5094 46.0877 25.6634 47 19.16 47V49C25.7979 49 31.0213 48.0776 34.7284 46.1336L33.7996 44.3624ZM19.16 47H0.344V49H19.16V47ZM1.344 48V46.784H-0.656V48H1.344ZM0.344 47.784H4.504V45.784H0.344V47.784ZM5.504 46.784V4.416H3.504V46.784H5.504ZM4.504 3.416H0.344V5.416H4.504V3.416ZM1.344 4.416V3.2H-0.656V4.416H1.344ZM15.984 25.344V46.784H17.984V25.344H15.984ZM16.984 47.784H19.992V45.784H16.984V47.784ZM19.992 47.784C22.5906 47.784 24.621 46.8643 25.7854 44.853L24.0546 43.851C23.3417 45.0824 22.0867 45.784 19.992 45.784V47.784ZM25.7854 44.853C26.8535 43.0081 27.328 40.4108 27.328 37.184H25.328C25.328 40.2718 24.8638 42.4532 24.0546 43.851L25.7854 44.853ZM27.328 37.184V33.792H25.328V37.184H27.328ZM27.328 33.792C27.328 30.8651 26.7334 28.4843 25.374 26.8228L23.826 28.0892C24.7706 29.2437 25.328 31.0869 25.328 33.792H27.328ZM25.374 26.8228C23.9404 25.0706 21.5165 24.344 18.456 24.344V26.344C21.2835 26.344 22.9556 27.0254 23.826 28.0892L25.374 26.8228ZM18.456 24.344H16.984V26.344H18.456V24.344ZM15.984 4.416V24.128H17.984V4.416H15.984ZM16.984 25.128H18.648V23.128H16.984V25.128ZM18.648 25.128C21.0545 25.128 22.9893 24.4019 24.0963 22.6861L22.4157 21.6019C21.816 22.5314 20.6789 23.128 18.648 23.128V25.128ZM24.092 22.6927C25.1463 21.0862 25.6 18.7831 25.6 15.936H23.6C23.6 18.6355 23.1577 20.4711 22.42 21.5953L24.092 22.6927ZM25.6 15.936V12.928H23.6V15.936H25.6ZM25.6 12.928C25.6 9.7559 25.2263 7.30482 24.2976 5.80864L22.5984 6.86336C23.2057 7.84184 23.6 9.78543 23.6 12.928H25.6ZM24.3055 5.8215C23.2818 4.11531 21.3837 3.416 19.032 3.416V5.416C21.0323 5.416 22.0782 5.99669 22.5905 6.85049L24.3055 5.8215ZM19.032 3.416H16.984V5.416H19.032V3.416ZM64.9955 20.928L64.0193 21.1449L64.0222 21.1578L64.0254 21.1705L64.9955 20.928ZM59.6195 18.88L60.2978 19.6148L60.3 19.6128L59.6195 18.88ZM58.4035 21.504L57.4242 21.3014L57.4229 21.3079L58.4035 21.504ZM58.2115 43.648L57.2467 43.9111L57.2522 43.9313L57.2586 43.9512L58.2115 43.648ZM59.1075 45.952L60.0166 45.5353L60.0095 45.5199L60.0019 45.5048L59.1075 45.952ZM65.1235 44.608L64.1608 44.3372L64.1573 44.3503L65.1235 44.608ZM49.6355 44.544L48.9284 45.2511L48.9284 45.2511L49.6355 44.544ZM49.8915 21.056L50.5769 21.7842L50.5772 21.7839L49.8915 21.056ZM74.0835 20.736L73.3822 21.4489L73.3883 21.4548L74.0835 20.736ZM66.6995 35.392V29.952H64.6995V35.392H66.6995ZM66.6995 29.952C66.6995 25.8024 66.4667 22.6897 65.9656 20.6855L64.0254 21.1705C64.463 22.9209 64.6995 25.8243 64.6995 29.952H66.6995ZM65.9717 20.7111C65.7316 19.6307 65.2983 18.7011 64.5914 18.0385C63.8654 17.3578 62.946 17.048 61.9235 17.048V19.048C62.5224 19.048 62.9256 19.2182 63.2236 19.4975C63.5407 19.7949 63.8327 20.3053 64.0193 21.1449L65.9717 20.7111ZM61.9235 17.048C60.7734 17.048 59.7493 17.3948 58.939 18.1472L60.3 19.6128C60.6843 19.2559 61.1962 19.048 61.9235 19.048V17.048ZM58.9412 18.1452C58.1606 18.8658 57.6968 19.9841 57.4242 21.3014L59.3828 21.7066C59.6222 20.5492 59.9691 19.9182 60.2978 19.6148L58.9412 18.1452ZM57.4229 21.3079C57.0188 23.3287 56.8275 26.3326 56.8275 30.272H58.8275C58.8275 26.3608 59.0202 23.5193 59.3841 21.7001L57.4229 21.3079ZM56.8275 30.272V35.264H58.8275V30.272H56.8275ZM56.8275 35.264C56.8275 37.5961 56.8595 39.4745 56.9245 40.8938C56.9878 42.2756 57.0851 43.3183 57.2467 43.9111L59.1763 43.3849C59.0819 43.039 58.9872 42.2151 58.9225 40.8022C58.8595 39.4268 58.8275 37.5826 58.8275 35.264H56.8275ZM57.2586 43.9512C57.5663 44.9184 57.8831 45.7393 58.2131 46.3992L60.0019 45.5048C59.7346 44.97 59.454 44.2549 59.1644 43.3448L57.2586 43.9512ZM58.1984 46.3687C58.5148 47.059 59.0023 47.61 59.6601 47.9772C60.3059 48.3376 61.0559 48.488 61.8595 48.488V46.488C61.2977 46.488 60.9064 46.3824 60.6349 46.2308C60.3754 46.086 60.1695 45.869 60.0166 45.5353L58.1984 46.3687ZM61.8595 48.488C62.897 48.488 63.8317 48.1826 64.5851 47.5178C65.3223 46.8674 65.8012 45.9478 66.0897 44.8657L64.1573 44.3503C63.9338 45.1882 63.6127 45.7086 63.2619 46.0182C62.9273 46.3134 62.486 46.488 61.8595 46.488V48.488ZM66.0862 44.8787C66.3089 44.0868 66.457 42.8868 66.5536 41.3424C66.6514 39.7776 66.6995 37.7922 66.6995 35.392H64.6995C64.6995 37.7705 64.6516 39.7104 64.5574 41.2176C64.462 42.7452 64.3221 43.7639 64.1608 44.3373L66.0862 44.8787ZM61.7315 47.64C56.5603 47.64 52.8236 46.3179 50.3426 43.8369L48.9284 45.2511C51.9087 48.2314 56.236 49.64 61.7315 49.64V47.64ZM50.3426 43.8369C47.853 41.3473 46.5395 37.7308 46.5395 32.832H44.5395C44.5395 38.0879 45.9567 42.2794 48.9284 45.2511L50.3426 43.8369ZM46.5395 32.832C46.5395 27.9047 47.9297 24.2757 50.5769 21.7842L49.2061 20.3278C46.0506 23.2977 44.5395 27.5193 44.5395 32.832H46.5395ZM50.5772 21.7839C53.2841 19.2339 57.1268 17.896 62.2435 17.896V15.896C56.7789 15.896 52.3869 17.3314 49.2058 20.3281L50.5772 21.7839ZM62.2435 17.896C67.3896 17.896 71.0365 19.1416 73.3823 21.4489L74.7847 20.0231C71.9252 17.2104 67.6788 15.896 62.2435 15.896V17.896ZM73.3883 21.4548C75.7242 23.7142 76.9875 27.2659 76.9875 32.32H78.9875C78.9875 26.9634 77.6481 22.7925 74.7787 20.0172L73.3883 21.4548ZM76.9875 32.32C76.9875 37.6068 75.6715 41.3881 73.215 43.8543C70.7592 46.3197 66.995 47.64 61.7315 47.64V49.64C67.3053 49.64 71.6691 48.2403 74.632 45.2657C77.5942 42.2919 78.9875 37.9132 78.9875 32.32H76.9875ZM102.946 20.928L101.969 21.1449L101.972 21.1578L101.975 21.1705L102.946 20.928ZM97.5695 18.88L98.2478 19.6148L98.25 19.6128L97.5695 18.88ZM96.3535 21.504L95.3742 21.3014L95.3729 21.3079L96.3535 21.504ZM96.1615 43.648L95.1967 43.9111L95.2022 43.9313L95.2086 43.9512L96.1615 43.648ZM97.0575 45.952L97.9666 45.5353L97.9595 45.5199L97.9519 45.5048L97.0575 45.952ZM103.074 44.608L102.111 44.3372L102.107 44.3503L103.074 44.608ZM87.5855 44.544L86.8784 45.2511L86.8784 45.2511L87.5855 44.544ZM87.8415 21.056L88.5269 21.7842L88.5272 21.7839L87.8415 21.056ZM112.034 20.736L111.332 21.4489L111.338 21.4548L112.034 20.736ZM104.65 35.392V29.952H102.65V35.392H104.65ZM104.65 29.952C104.65 25.8024 104.417 22.6897 103.916 20.6855L101.975 21.1705C102.413 22.9209 102.65 25.8243 102.65 29.952H104.65ZM103.922 20.7111C103.682 19.6307 103.248 18.7011 102.541 18.0385C101.815 17.3578 100.896 17.048 99.8735 17.048V19.048C100.472 19.048 100.876 19.2182 101.174 19.4975C101.491 19.7949 101.783 20.3053 101.969 21.1449L103.922 20.7111ZM99.8735 17.048C98.7234 17.048 97.6993 17.3948 96.8891 18.1472L98.25 19.6128C98.6343 19.2559 99.1463 19.048 99.8735 19.048V17.048ZM96.8912 18.1452C96.1106 18.8658 95.6468 19.9841 95.3742 21.3014L97.3328 21.7066C97.5722 20.5492 97.9191 19.9182 98.2478 19.6148L96.8912 18.1452ZM95.3729 21.3079C94.9688 23.3287 94.7775 26.3326 94.7775 30.272H96.7775C96.7775 26.3608 96.9702 23.5193 97.3341 21.7001L95.3729 21.3079ZM94.7775 30.272V35.264H96.7775V30.272H94.7775ZM94.7775 35.264C94.7775 37.5961 94.8095 39.4745 94.8745 40.8938C94.9378 42.2756 95.0351 43.3183 95.1967 43.9111L97.1263 43.3849C97.0319 43.039 96.9372 42.2151 96.8725 40.8022C96.8095 39.4268 96.7775 37.5826 96.7775 35.264H94.7775ZM95.2086 43.9512C95.5163 44.9184 95.8331 45.7393 96.1631 46.3992L97.9519 45.5048C97.6846 44.97 97.404 44.2549 97.1144 43.3448L95.2086 43.9512ZM96.1484 46.3687C96.4648 47.059 96.9523 47.61 97.6101 47.9772C98.2559 48.3376 99.0059 48.488 99.8095 48.488V46.488C99.2477 46.488 98.8565 46.3824 98.5849 46.2308C98.3254 46.086 98.1195 45.869 97.9666 45.5353L96.1484 46.3687ZM99.8095 48.488C100.847 48.488 101.782 48.1826 102.535 47.5178C103.272 46.8674 103.751 45.9478 104.04 44.8657L102.107 44.3503C101.884 45.1882 101.563 45.7086 101.212 46.0182C100.877 46.3134 100.436 46.488 99.8095 46.488V48.488ZM104.036 44.8787C104.259 44.0868 104.407 42.8868 104.504 41.3424C104.601 39.7776 104.65 37.7922 104.65 35.392H102.65C102.65 37.7705 102.602 39.7104 102.507 41.2176C102.412 42.7452 102.272 43.7639 102.111 44.3373L104.036 44.8787ZM99.6815 47.64C94.5103 47.64 90.7736 46.3179 88.2926 43.8369L86.8784 45.2511C89.8587 48.2314 94.186 49.64 99.6815 49.64V47.64ZM88.2926 43.8369C85.803 41.3473 84.4895 37.7308 84.4895 32.832H82.4895C82.4895 38.0879 83.9067 42.2794 86.8784 45.2511L88.2926 43.8369ZM84.4895 32.832C84.4895 27.9047 85.8797 24.2757 88.5269 21.7842L87.1561 20.3278C84.0006 23.2977 82.4895 27.5193 82.4895 32.832H84.4895ZM88.5272 21.7839C91.2341 19.2339 95.0768 17.896 100.194 17.896V15.896C94.7289 15.896 90.3369 17.3314 87.1558 20.3281L88.5272 21.7839ZM100.194 17.896C105.34 17.896 108.987 19.1416 111.332 21.4489L112.735 20.0231C109.875 17.2104 105.629 15.896 100.194 15.896V17.896ZM111.338 21.4548C113.674 23.7142 114.938 27.2659 114.938 32.32H116.938C116.938 26.9634 115.598 22.7925 112.729 20.0172L111.338 21.4548ZM114.938 32.32C114.938 37.6068 113.622 41.3881 111.165 43.8543C108.709 46.3197 104.945 47.64 99.6815 47.64V49.64C105.255 49.64 109.619 48.2403 112.582 45.2657C115.544 42.2919 116.938 37.9132 116.938 32.32H114.938ZM141.855 48H140.855V49H141.855V48ZM141.855 46.848V45.848H140.855V46.848H141.855ZM144.799 46.848V47.848H146.399L145.699 46.4101L144.799 46.848ZM137.567 32L138.467 31.5621L138.107 30.824L137.313 31.0329L137.567 32ZM136.351 32.32L136.097 31.3529L135.351 31.5491V32.32H136.351ZM136.351 46.848H135.351V47.848H136.351V46.848ZM139.295 46.848H140.295V45.848H139.295V46.848ZM139.295 48V49H140.295V48H139.295ZM120.927 48H119.927V49H120.927V48ZM120.927 46.848V45.848H119.927V46.848H120.927ZM124.447 46.848V47.848H125.447V46.848H124.447ZM124.447 1.152H125.447V0.151997H124.447V1.152ZM120.671 1.152H119.671V2.152H120.671V1.152ZM120.671 -3.8147e-06V-1H119.671V-3.8147e-06H120.671ZM136.351 -3.8147e-06H137.351V-1H136.351V-3.8147e-06ZM136.351 31.04H135.351V32.483L136.703 31.9763L136.351 31.04ZM137.375 30.656L137.727 31.5923L137.885 31.533L138.015 31.4251L137.375 30.656ZM151.775 18.688L152.415 19.4571L154.543 17.688H151.775V18.688ZM145.76 18.688H144.76V19.688H145.76V18.688ZM145.76 17.536V16.536H144.76V17.536H145.76ZM158.368 17.536H159.368V16.536H158.368V17.536ZM158.368 18.688V19.688H159.368V18.688H158.368ZM153.888 18.688V17.688H153.52L153.24 17.9256L153.888 18.688ZM146.271 25.152L145.624 24.3896L145.021 24.9017L145.381 25.6066L146.271 25.152ZM157.344 46.848L156.453 47.3026L156.731 47.848H157.344V46.848ZM159.647 46.848H160.647V45.848H159.647V46.848ZM159.647 48V49H160.647V48H159.647ZM142.855 48V46.848H140.855V48H142.855ZM141.855 47.848H144.799V45.848H141.855V47.848ZM145.699 46.4101L138.467 31.5621L136.668 32.4379L143.9 47.2859L145.699 46.4101ZM137.313 31.0329L136.097 31.3529L136.606 33.2871L137.822 32.9671L137.313 31.0329ZM135.351 32.32V46.848H137.351V32.32H135.351ZM136.351 47.848H139.295V45.848H136.351V47.848ZM138.295 46.848V48H140.295V46.848H138.295ZM139.295 47H120.927V49H139.295V47ZM121.927 48V46.848H119.927V48H121.927ZM120.927 47.848H124.447V45.848H120.927V47.848ZM125.447 46.848V1.152H123.447V46.848H125.447ZM124.447 0.151997H120.671V2.152H124.447V0.151997ZM121.671 1.152V-3.8147e-06H119.671V1.152H121.671ZM120.671 0.999996H136.351V-1H120.671V0.999996ZM135.351 -3.8147e-06V31.04H137.351V-3.8147e-06H135.351ZM136.703 31.9763L137.727 31.5923L137.024 29.7197L136 30.1037L136.703 31.9763ZM138.015 31.4251L152.415 19.4571L151.136 17.9189L136.736 29.8869L138.015 31.4251ZM151.775 17.688H145.76V19.688H151.775V17.688ZM146.76 18.688V17.536H144.76V18.688H146.76ZM145.76 18.536H158.368V16.536H145.76V18.536ZM157.368 17.536V18.688H159.368V17.536H157.368ZM158.368 17.688H153.888V19.688H158.368V17.688ZM153.24 17.9256L145.624 24.3896L146.919 25.9144L154.535 19.4504L153.24 17.9256ZM145.381 25.6066L156.453 47.3026L158.234 46.3934L147.162 24.6974L145.381 25.6066ZM157.344 47.848H159.647V45.848H157.344V47.848ZM158.647 46.848V48H160.647V46.848H158.647ZM159.647 47H141.855V49H159.647V47ZM165.287 48.64H164.287V49.64H165.287V48.64ZM165.287 37.184V36.184H164.287V37.184H165.287ZM166.055 37.184L167.013 36.8977L166.8 36.184H166.055V37.184ZM170.535 44.992L169.912 45.7746L169.912 45.7746L170.535 44.992ZM182.503 40.384L182.012 41.255L182.014 41.2565L182.503 40.384ZM176.103 38.208L175.847 39.1747L175.878 39.183L175.91 39.1892L176.103 38.208ZM168.807 35.136L168.259 35.9727L168.261 35.9736L168.807 35.136ZM168.359 19.904L169.051 20.626L169.059 20.6185L168.359 19.904ZM183.015 18.368L182.61 19.2825L182.619 19.2862L182.627 19.2896L183.015 18.368ZM187.047 16.768V15.768H186.443L186.162 16.3023L187.047 16.768ZM187.751 16.768H188.751V15.768H187.751V16.768ZM187.751 26.56V27.56H188.751V26.56H187.751ZM186.983 26.56L186.052 26.9252L186.301 27.56H186.983V26.56ZM172.391 19.328L172.962 20.1489L172.974 20.1407L172.985 20.1322L172.391 19.328ZM171.367 23.488L170.578 24.1019L170.595 24.1248L170.614 24.1465L171.367 23.488ZM172.071 24.256L172.778 23.5489L172.778 23.5489L172.071 24.256ZM172.903 24.832L172.417 25.7062L172.456 25.7278L172.497 25.7458L172.903 24.832ZM173.863 25.28L173.416 26.1744L173.479 26.2062L173.547 26.2287L173.863 25.28ZM175.015 25.664L174.699 26.6127L174.71 26.6164L174.721 26.6198L175.015 25.664ZM176.231 25.984L176.474 25.0139L176.435 25.0042L176.395 24.9976L176.231 25.984ZM182.503 27.904L182.105 28.8216L182.118 28.8272L182.132 28.8325L182.503 27.904ZM186.151 29.824L186.719 29.0013L186.713 28.9966L186.706 28.9919L186.151 29.824ZM186.471 45.888L187.123 46.6462L187.132 46.6387L186.471 45.888ZM170.023 46.784L169.468 47.6161L169.52 47.6506L169.576 47.6784L170.023 46.784ZM166.055 48.64V49.64H166.637L166.925 49.1336L166.055 48.64ZM166.287 48.64V37.184H164.287V48.64H166.287ZM165.287 38.184H166.055V36.184H165.287V38.184ZM165.097 37.4703C166.232 41.268 167.804 44.0975 169.912 45.7746L171.158 44.2094C169.511 42.8998 168.097 40.524 167.013 36.8977L165.097 37.4703ZM169.912 45.7746C171.996 47.4323 174.574 48.232 177.575 48.232V46.232C174.944 46.232 172.828 45.5384 171.158 44.2094L169.912 45.7746ZM177.575 48.232C179.825 48.232 181.684 47.8794 183.008 47.0353C184.409 46.1425 185.103 44.7697 185.103 43.072H183.103C183.103 44.1476 182.709 44.8548 181.934 45.3487C181.082 45.8913 179.677 46.232 177.575 46.232V48.232ZM185.103 43.072C185.103 42.3213 184.934 41.6167 184.562 40.9925C184.191 40.3695 183.651 39.881 182.992 39.5115L182.014 41.2565C182.421 41.4843 182.681 41.7425 182.844 42.0155C183.006 42.2873 183.103 42.628 183.103 43.072H185.103ZM182.994 39.513C181.209 38.506 178.966 37.752 176.296 37.2268L175.91 39.1892C178.445 39.688 180.469 40.3847 182.012 41.255L182.994 39.513ZM176.359 37.2413C173.533 36.4933 171.206 35.5064 169.353 34.2984L168.261 35.9736C170.334 37.3256 172.87 38.3867 175.847 39.1747L176.359 37.2413ZM169.355 34.2993C167.346 32.9847 166.287 30.9035 166.287 27.84H164.287C164.287 31.4325 165.574 34.2153 168.259 35.9727L169.355 34.2993ZM166.287 27.84C166.287 24.7333 167.234 22.3673 169.051 20.626L167.667 19.182C165.388 21.366 164.287 24.2906 164.287 27.84H166.287ZM169.059 20.6185C170.885 18.8304 173.346 17.896 176.551 17.896V15.896C172.929 15.896 169.929 16.9669 167.659 19.1895L169.059 20.6185ZM176.551 17.896C178.482 17.896 180.499 18.3486 182.61 19.2825L183.42 17.4535C181.094 16.4247 178.802 15.896 176.551 15.896V17.896ZM182.627 19.2896C183.458 19.6394 184.232 19.88 184.871 19.88V17.88C184.656 17.88 184.194 17.7792 183.403 17.4464L182.627 19.2896ZM184.871 19.88C185.56 19.88 186.178 19.6274 186.666 19.1391L185.252 17.7249C185.143 17.8339 185.035 17.88 184.871 17.88V19.88ZM186.666 19.1391C187.079 18.7259 187.5 18.0544 187.932 17.2337L186.162 16.3023C185.741 17.1029 185.436 17.5407 185.252 17.7249L186.666 19.1391ZM187.047 17.768H187.751V15.768H187.047V17.768ZM186.751 16.768V26.56H188.751V16.768H186.751ZM187.751 25.56H186.983V27.56H187.751V25.56ZM187.914 26.1948C186.785 23.3182 185.315 21.0751 183.458 19.5478C181.585 18.0067 179.374 17.24 176.871 17.24V19.24C178.933 19.24 180.69 19.86 182.188 21.0922C183.702 22.3382 185.005 24.2552 186.052 26.9252L187.914 26.1948ZM176.871 17.24C174.778 17.24 173.029 17.6127 171.797 18.5238L172.985 20.1322C173.715 19.5926 174.954 19.24 176.871 19.24V17.24ZM171.82 18.5071C170.608 19.3504 169.919 20.5145 169.919 21.952H171.919C171.919 21.2561 172.212 20.6709 172.962 20.1489L171.82 18.5071ZM169.919 21.952C169.919 22.744 170.105 23.494 170.578 24.1019L172.156 22.8741C172.032 22.714 171.919 22.44 171.919 21.952H169.919ZM170.614 24.1465C170.917 24.4928 171.169 24.7686 171.364 24.9631L172.778 23.5489C172.631 23.402 172.414 23.1659 172.12 22.8295L170.614 24.1465ZM171.364 24.9631C171.633 25.2326 172.007 25.4782 172.417 25.7062L173.389 23.9578C173.031 23.7592 172.85 23.6207 172.778 23.5489L171.364 24.9631ZM172.497 25.7458C172.873 25.9129 173.178 26.0555 173.416 26.1744L174.31 24.3856C174.036 24.2485 173.701 24.0924 173.309 23.9182L172.497 25.7458ZM173.547 26.2287C173.649 26.2628 173.861 26.3333 174.027 26.3887C174.028 26.3889 174.028 26.3892 174.029 26.3894C174.03 26.3897 174.031 26.3899 174.031 26.3902C174.034 26.391 174.033 26.3909 174.036 26.3917C174.041 26.3933 174.04 26.3931 174.045 26.3947C174.055 26.398 174.053 26.3975 174.063 26.4008C174.088 26.409 174.075 26.4049 174.1 26.4132C174.151 26.43 174.125 26.4215 174.177 26.4387C174.283 26.474 174.229 26.456 174.339 26.4927C174.395 26.5115 174.367 26.502 174.424 26.5212C174.453 26.5309 174.439 26.526 174.468 26.5358C174.483 26.5407 174.476 26.5383 174.49 26.5432C174.496 26.5452 174.507 26.5487 174.513 26.5507C174.514 26.551 174.515 26.5513 174.516 26.5516C174.517 26.5519 174.517 26.5522 174.518 26.5526C174.519 26.5529 174.52 26.5532 174.521 26.5535C174.522 26.5538 174.523 26.5541 174.524 26.5544C174.532 26.557 174.528 26.5557 174.535 26.5582C174.551 26.5633 174.543 26.5607 174.558 26.5658C174.589 26.576 174.573 26.5709 174.604 26.5812C174.667 26.602 174.635 26.5915 174.699 26.6127L175.331 24.7153C175.306 24.7068 175.167 24.6605 175.145 24.6533C175.133 24.6491 175.068 24.6277 175.057 24.6238C175.056 24.6235 175.055 24.6232 175.054 24.6229C175.053 24.6226 175.052 24.6223 175.051 24.622C175.05 24.6217 175.049 24.6214 175.049 24.6211C175.048 24.6208 175.047 24.6205 175.046 24.6202C175.046 24.6202 175.035 24.6166 175.035 24.6166C175.018 24.6108 175.031 24.6152 175.014 24.6094C174.98 24.5982 175.005 24.6065 174.971 24.5953C174.792 24.5356 174.822 24.5457 174.659 24.4913C174.515 24.4434 174.523 24.4459 174.395 24.4033C174.394 24.403 174.389 24.4012 174.388 24.4008C174.387 24.4005 174.381 24.3987 174.38 24.3983C174.361 24.3918 174.385 24.4 174.366 24.3934C174.364 24.3928 174.353 24.3892 174.351 24.3886C174.349 24.388 174.346 24.3868 174.344 24.3862C174.34 24.3849 174.341 24.3851 174.337 24.3838C174.276 24.3635 174.341 24.3853 174.281 24.3653C174.252 24.3554 174.205 24.3399 174.179 24.3313L173.547 26.2287ZM174.721 26.6198C175.279 26.7916 175.74 26.9159 176.067 26.9704L176.395 24.9976C176.21 24.9668 175.86 24.8777 175.309 24.7082L174.721 26.6198ZM175.988 26.9541C178.883 27.6777 180.906 28.3016 182.105 28.8216L182.901 26.9864C181.54 26.397 179.382 25.741 176.474 25.0139L175.988 26.9541ZM182.132 28.8325C183.347 29.3187 184.502 29.9263 185.596 30.656L186.706 28.9919C185.496 28.1857 184.219 27.5133 182.874 26.9755L182.132 28.8325ZM185.583 30.6467C187.586 32.031 188.671 34.298 188.671 37.696H190.671C190.671 33.8407 189.409 30.8597 186.719 29.0013L185.583 30.6467ZM188.671 37.696C188.671 41.0733 187.674 43.4973 185.81 45.1373L187.132 46.6387C189.535 44.524 190.671 41.4867 190.671 37.696H188.671ZM185.819 45.1298C183.918 46.7644 181.253 47.64 177.703 47.64V49.64C181.577 49.64 184.757 48.6809 187.123 46.6462L185.819 45.1298ZM177.703 47.64C175.22 47.64 172.813 47.0608 170.47 45.8896L169.576 47.6784C172.183 48.9819 174.895 49.64 177.703 49.64V47.64ZM170.578 45.9519C170.043 45.5957 169.423 45.272 168.807 45.272V47.272C168.776 47.272 168.814 47.2657 168.947 47.3216C169.073 47.3749 169.246 47.4677 169.468 47.6161L170.578 45.9519ZM168.807 45.272C167.272 45.272 166.098 46.5378 165.185 48.1464L166.925 49.1336C167.804 47.5848 168.465 47.272 168.807 47.272V45.272ZM166.055 47.64H165.287V49.64H166.055V47.64ZM192.883 18.688H191.883V19.688H192.883V18.688ZM192.883 17.536V16.536H191.883V17.536H192.883ZM211.443 17.536H212.443V16.536H211.443V17.536ZM211.443 18.688V19.688H212.443V18.688H211.443ZM207.987 18.688V17.688H206.606L207.036 18.9999L207.987 18.688ZM214.963 39.936L214.012 40.2479L214.933 43.0521L215.907 40.2658L214.963 39.936ZM222.387 18.688L223.331 19.0178L223.795 17.688H222.387V18.688ZM218.099 18.688H217.099V19.688H218.099V18.688ZM218.099 17.536V16.536H217.099V17.536H218.099ZM227.123 17.536H228.123V16.536H227.123V17.536ZM227.123 18.688V19.688H228.123V18.688H227.123ZM223.923 18.688V17.688H223.211L222.978 18.3602L223.923 18.688ZM211.955 53.184L212.898 53.5152L212.899 53.5118L211.955 53.184ZM207.219 61.568L206.548 60.8255L206.539 60.8346L207.219 61.568ZM194.867 62.272L195.488 61.4889L195.488 61.4889L194.867 62.272ZM194.099 53.76L193.391 53.0529L193.391 53.0529L194.099 53.76ZM202.739 59.072V60.072H203.493L203.7 59.3467L202.739 59.072ZM200.499 59.072V58.072H199.788L199.554 58.7435L200.499 59.072ZM200.371 61.504L201.299 61.1326L201.299 61.1326L200.371 61.504ZM206.771 59.84L205.99 59.2153L205.982 59.2247L206.771 59.84ZM210.675 51.968L209.732 51.6336L209.73 51.6382L210.675 51.968ZM212.083 48L213.025 48.3344L213.498 47H212.083V48ZM206.451 48L205.514 48.3498L205.756 49H206.451V48ZM195.507 18.688L196.443 18.3382L196.201 17.688H195.507V18.688ZM193.883 18.688V17.536H191.883V18.688H193.883ZM192.883 18.536H211.443V16.536H192.883V18.536ZM210.443 17.536V18.688H212.443V17.536H210.443ZM211.443 17.688H207.987V19.688H211.443V17.688ZM207.036 18.9999L214.012 40.2479L215.913 39.6241L208.937 18.3761L207.036 18.9999ZM215.907 40.2658L223.331 19.0178L221.442 18.3582L214.018 39.6062L215.907 40.2658ZM222.387 17.688H218.099V19.688H222.387V17.688ZM219.099 18.688V17.536H217.099V18.688H219.099ZM218.099 18.536H227.123V16.536H218.099V18.536ZM226.123 17.536V18.688H228.123V17.536H226.123ZM227.123 17.688H223.923V19.688H227.123V17.688ZM222.978 18.3602L211.01 52.8562L212.899 53.5118L224.867 19.0158L222.978 18.3602ZM211.011 52.8528C209.62 56.8138 208.11 59.4165 206.549 60.8256L207.888 62.3104C209.826 60.5622 211.473 57.5755 212.898 53.5152L211.011 52.8528ZM206.539 60.8346C204.985 62.2744 203.099 63 200.819 63V65C203.573 65 205.953 64.1043 207.898 62.3014L206.539 60.8346ZM200.819 63C198.446 63 196.708 62.4574 195.488 61.4889L194.245 63.0551C195.926 64.3906 198.156 65 200.819 65V63ZM195.488 61.4889C194.267 60.5192 193.691 59.3312 193.691 57.856H191.691C191.691 59.9648 192.564 61.7208 194.245 63.0551L195.488 61.4889ZM193.691 57.856C193.691 56.2338 194.113 55.1601 194.806 54.4671L193.391 53.0529C192.207 54.2372 191.691 55.8942 191.691 57.856H193.691ZM194.806 54.4671C195.527 53.7456 196.495 53.352 197.811 53.352V51.352C196.054 51.352 194.547 51.897 193.391 53.0529L194.806 54.4671ZM197.811 53.352C199.467 53.352 200.524 53.7002 201.155 54.225C201.751 54.7204 202.123 55.5037 202.123 56.768H204.123C204.123 55.0883 203.609 53.6636 202.434 52.687C201.294 51.7398 199.695 51.352 197.811 51.352V53.352ZM202.123 56.768C202.123 57.2833 202.018 57.9538 201.777 58.7973L203.7 59.3467C203.971 58.3982 204.123 57.5327 204.123 56.768H202.123ZM202.739 58.072H200.499V60.072H202.739V58.072ZM199.554 58.7435C199.172 59.8408 199.061 60.9221 199.442 61.8754L201.299 61.1326C201.168 60.8059 201.142 60.2658 201.443 59.4005L199.554 58.7435ZM199.442 61.8754C199.651 62.3983 200.01 62.821 200.509 63.0982C200.989 63.3651 201.539 63.464 202.099 63.464V61.464C201.762 61.464 201.576 61.4029 201.48 61.3498C201.403 61.307 201.346 61.2497 201.299 61.1326L199.442 61.8754ZM202.099 63.464C204.236 63.464 206.06 62.376 207.559 60.4553L205.982 59.2247C204.751 60.8027 203.459 61.464 202.099 61.464V63.464ZM207.551 60.4647C209.02 58.6284 210.367 55.8809 211.619 52.2978L209.73 51.6382C208.508 55.1378 207.251 57.6383 205.99 59.2153L207.551 60.4647ZM211.617 52.3024L213.025 48.3344L211.14 47.6656L209.732 51.6336L211.617 52.3024ZM212.083 47H206.451V49H212.083V47ZM207.387 47.6502L196.443 18.3382L194.57 19.0378L205.514 48.3498L207.387 47.6502ZM195.507 17.688H192.883V19.688H195.507V17.688Z" fill="#BAAF0F" mask="url(#path-1-outside-1_602_18)"/>
</svg>
