<?xml version="1.0" standalone="no"?>
<!DOCTYPE svg PUBLIC "-//W3C//DTD SVG 20010904//EN"
 "http://www.w3.org/TR/2001/REC-SVG-20010904/DTD/svg10.dtd">
<svg version="1.0" xmlns="http://www.w3.org/2000/svg"
 width="1200.000000pt" height="1200.000000pt" viewBox="0 0 1200.000000 1200.000000"
 preserveAspectRatio="xMidYMid meet">

<g transform="translate(0.000000,1200.000000) scale(0.100000,-0.100000)"
fill="#000000" stroke="none">
<path d="M6204 7167 c-3 -8 -4 -52 -2 -98 l3 -84 75 -3 c44 -2 78 -8 82 -15 9
-14 11 -1791 2 -1824 -5 -20 -14 -22 -78 -25 l-71 -3 -3 -91 c-3 -88 -2 -92
20 -98 13 -3 420 -6 906 -6 777 0 882 -2 882 -15 0 -12 14 -15 70 -15 63 0 71
2 87 26 10 14 27 37 38 50 l20 25 100 -40 c80 -32 120 -42 202 -49 152 -14
295 1 377 38 158 72 243 169 290 332 22 76 22 260 0 335 -20 70 -72 158 -118
202 -20 19 -36 39 -36 43 0 4 17 8 38 8 21 0 43 5 50 12 8 8 12 62 12 176 l0
163 37 -3 37 -3 48 -125 c27 -69 61 -161 77 -205 30 -82 41 -113 129 -345 28
-74 74 -198 103 -275 29 -77 62 -167 74 -200 40 -107 46 -119 58 -127 7 -4 49
-8 95 -8 64 0 82 -3 82 -14 0 -21 -86 -230 -116 -284 -58 -101 -132 -169 -104
-96 6 14 10 53 10 87 -1 114 -76 218 -178 247 -20 5 -77 10 -127 10 -78 -1
-97 -5 -145 -29 -153 -77 -198 -300 -91 -455 58 -84 145 -133 270 -151 220
-33 405 46 516 220 78 121 124 234 265 655 10 30 42 120 70 200 28 80 67 190
85 245 18 55 61 179 95 275 34 96 75 216 92 265 17 50 35 96 40 103 7 7 37 12
84 12 l74 0 0 95 0 95 -270 0 -270 0 0 -95 0 -95 75 0 c88 0 89 -1 51 -101
-13 -35 -36 -100 -51 -144 -109 -323 -137 -390 -149 -354 -2 8 -45 139 -95
291 -50 152 -91 284 -91 293 0 12 12 15 58 15 l57 0 -3 95 -3 95 -444 0 c-435
0 -444 0 -450 20 -6 17 -15 20 -76 20 l-69 0 -24 -39 c-14 -22 -29 -42 -35
-45 -5 -3 -38 5 -74 19 -231 86 -458 72 -622 -40 -153 -105 -225 -247 -225
-441 0 -112 23 -195 79 -281 22 -34 37 -64 34 -67 -4 -3 -30 -6 -60 -6 l-53 0
0 -211 0 -210 -51 3 -50 3 -135 265 c-75 146 -171 336 -215 422 -44 87 -78
162 -74 168 4 6 63 58 132 115 l124 105 102 0 c154 0 147 -4 147 100 0 71 -3
89 -16 94 -9 3 -166 6 -350 6 l-335 0 3 -97 3 -98 53 -3 c31 -2 52 -7 50 -13
-5 -16 -351 -299 -365 -299 -10 0 -13 134 -13 645 l0 645 -410 0 c-333 0 -412
-3 -416 -13z m764 -739 c1 -373 6 -678 10 -678 5 0 22 10 38 23 28 20 517 425
573 474 l26 22 -115 1 c-122 0 -144 6 -138 36 3 18 17 19 283 19 l280 0 0 -25
c0 -25 -1 -25 -99 -28 l-98 -3 -87 -72 c-47 -39 -121 -102 -163 -139 l-77 -68
38 -72 c21 -40 116 -226 211 -413 95 -187 186 -365 202 -395 28 -55 29 -55 81
-60 44 -4 52 -8 55 -27 2 -16 -3 -24 -20 -28 -13 -3 -189 -4 -393 -3 l-370 3
-3 28 c-3 27 -2 27 52 27 32 0 56 4 56 10 0 11 -47 109 -214 452 -75 153 -88
176 -106 171 -19 -5 -20 -13 -20 -319 l0 -314 60 0 60 0 0 -30 0 -30 -402 2
-403 3 -3 28 -3 27 75 0 76 0 0 1000 0 1000 -80 0 -80 0 0 30 0 30 348 -2 347
-3 3 -677z m1732 -72 c36 -7 100 -28 143 -45 43 -17 88 -31 101 -31 24 0 86
59 86 81 0 6 10 9 23 7 l22 -3 0 -215 c0 -208 -1 -215 -20 -215 -15 0 -29 19
-57 75 -102 205 -215 282 -412 281 -103 0 -168 -21 -211 -67 -36 -39 -36 -120
1 -163 23 -27 118 -81 143 -81 5 0 31 -7 57 -15 27 -8 96 -28 154 -45 189 -57
296 -122 360 -221 52 -81 70 -147 70 -261 0 -301 -195 -478 -526 -478 -124 0
-211 19 -318 69 -40 18 -79 30 -91 27 -24 -6 -58 -36 -82 -72 -10 -16 -23 -24
-37 -22 -21 3 -21 7 -21 253 0 246 0 250 21 253 18 3 25 -7 44 -60 79 -222
191 -334 367 -368 69 -14 206 -9 266 10 87 26 140 113 116 188 -24 76 -59 95
-283 162 -211 63 -232 70 -307 113 -118 66 -182 145 -215 270 -51 192 55 435
228 523 114 58 254 77 378 50z m1278 -53 c-3 -27 -5 -28 -74 -33 l-72 -5 73
-220 c40 -121 105 -320 145 -443 40 -123 76 -219 80 -215 4 4 19 42 33 83 14
41 49 140 77 220 28 80 60 170 70 200 10 30 43 127 74 214 31 87 56 160 56
162 0 2 -39 5 -87 6 -88 3 -88 3 -91 31 l-3 27 201 0 201 0 -3 -27 c-3 -27 -5
-28 -69 -31 l-67 -3 -20 -57 c-12 -31 -34 -97 -51 -147 -17 -49 -58 -169 -91
-265 -34 -96 -81 -231 -105 -300 -24 -69 -77 -224 -120 -345 -42 -121 -88
-254 -102 -295 -107 -319 -202 -463 -350 -532 -64 -30 -74 -32 -183 -31 -102
0 -122 3 -175 27 -65 29 -118 74 -143 121 -21 41 -41 130 -35 157 18 80 27
102 56 134 66 76 200 98 303 50 60 -28 86 -62 104 -132 11 -42 11 -57 -2 -95
-14 -42 -16 -44 -59 -47 -50 -4 -59 -13 -59 -63 0 -57 19 -73 83 -72 146 4
248 135 371 476 25 70 46 130 46 132 0 3 -51 5 -114 5 -79 0 -117 4 -124 13
-5 6 -24 48 -40 92 -17 44 -57 152 -90 240 -33 88 -104 277 -157 420 -53 143
-118 316 -144 385 l-47 125 -55 5 c-50 5 -54 7 -57 33 l-3 27 411 0 411 0 -3
-27z m-1268 -95 c52 -18 77 -35 125 -84 54 -54 125 -169 125 -202 0 -14 -22
-16 -36 -3 -13 12 -180 68 -289 96 -100 26 -181 58 -207 82 -10 9 -18 28 -18
43 0 80 161 116 300 68z m-427 -756 c87 -46 102 -52 289 -107 181 -54 231 -75
254 -110 16 -25 16 -28 1 -61 -24 -50 -85 -74 -191 -74 -185 0 -291 62 -375
219 -37 71 -72 171 -60 171 5 0 42 -17 82 -38z m-1164 -139 c39 -78 73 -153
77 -168 l6 -26 -83 3 -84 3 -3 155 c-2 139 1 190 12 179 3 -2 36 -68 75 -146z"/>
<path d="M1350 6925 l0 -95 78 0 c42 0 83 -4 90 -8 10 -7 12 -184 10 -853 l-3
-844 -88 -3 -88 -3 3 -97 3 -97 525 1 c576 0 670 6 859 55 160 42 266 100 340
186 54 64 111 186 111 240 0 59 14 51 32 -18 73 -279 283 -452 598 -489 110
-13 349 0 439 25 186 51 325 164 407 330 24 50 44 98 44 107 0 9 5 29 11 45
l12 28 9 -35 c28 -110 102 -242 174 -313 154 -152 368 -211 679 -188 186 14
284 45 402 128 107 75 181 177 226 313 37 112 49 194 49 343 -1 259 -65 447
-197 571 -42 39 -152 104 -214 125 -237 81 -581 65 -781 -38 -158 -80 -260
-202 -325 -386 l-22 -64 -13 57 c-7 31 -30 93 -50 137 -108 231 -333 344 -685
345 -457 0 -737 -225 -786 -633 -10 -82 -14 -96 -22 -76 -48 121 -129 214
-230 266 -29 14 -62 33 -75 41 l-23 15 49 33 c92 61 154 147 186 253 19 64 22
245 5 306 -35 127 -120 226 -243 284 -184 87 -323 101 -1018 101 l-478 0 0
-95z m1275 2 c188 -47 305 -116 359 -213 77 -137 74 -333 -7 -461 -59 -93
-145 -153 -287 -200 -70 -23 -80 -28 -55 -31 50 -6 188 -48 249 -77 109 -52
201 -156 237 -270 18 -55 16 -227 -4 -291 -52 -174 -186 -289 -403 -344 -167
-43 -272 -50 -786 -50 -267 0 -493 3 -502 6 -9 3 -16 17 -16 30 0 23 2 24 83
24 45 0 88 4 95 8 10 7 12 197 10 918 l-3 909 -90 5 c-90 5 -90 5 -93 33 l-3
28 578 -4 c470 -4 589 -7 638 -20z m1525 -571 c181 -30 264 -68 363 -167 121
-120 167 -262 167 -510 0 -204 -31 -337 -105 -454 -115 -180 -309 -265 -606
-265 -250 0 -404 53 -537 186 -118 118 -173 280 -173 509 0 157 17 246 71 362
66 142 225 275 375 314 146 38 308 47 445 25z m1525 0 c254 -39 415 -159 486
-361 29 -84 49 -208 49 -315 0 -391 -165 -629 -485 -700 -113 -25 -329 -27
-437 -5 -162 34 -289 107 -370 213 -96 126 -138 267 -138 467 0 197 41 337
135 467 137 188 445 282 760 234z"/>
<path d="M2160 6464 l0 -427 74 5 c92 6 154 39 190 101 44 75 62 256 46 447
-14 162 -24 196 -69 241 -42 43 -91 59 -178 59 l-63 0 0 -426z m191 330 c42
-38 53 -106 53 -329 0 -202 -1 -212 -25 -259 -29 -61 -61 -85 -114 -89 l-40
-2 -3 354 -2 354 56 -6 c31 -3 64 -13 75 -23z"/>
<path d="M2159 5976 c-2 -2 -3 -212 -1 -465 l2 -461 58 0 c256 2 332 113 332
485 0 246 -35 344 -143 401 -48 25 -233 55 -248 40z m216 -98 c62 -33 89 -84
104 -192 14 -102 13 -220 -3 -331 -16 -109 -33 -152 -75 -188 -37 -31 -67 -40
-131 -41 l-45 -1 -3 380 c-1 209 0 385 2 390 5 15 114 3 151 -17z"/>
<path d="M3935 6298 c-16 -6 -39 -18 -49 -27 -62 -53 -86 -230 -85 -626 0
-474 32 -607 147 -622 64 -9 108 12 139 64 36 62 52 224 52 538 1 377 -19 564
-70 636 -14 20 -81 52 -100 48 -2 0 -17 -5 -34 -11z m79 -83 c45 -49 51 -115
51 -575 0 -384 -2 -430 -19 -478 -18 -54 -38 -72 -79 -72 -30 0 -52 24 -74 80
-15 40 -17 93 -18 480 0 388 2 441 18 492 17 56 53 98 84 98 8 0 24 -11 37
-25z"/>
<path d="M5450 6296 c-19 -7 -45 -27 -57 -46 -56 -81 -66 -193 -61 -659 5
-405 10 -449 55 -518 50 -76 185 -67 226 14 38 75 42 127 42 563 0 446 -4 500
-46 582 -32 63 -94 88 -159 64z m71 -66 c56 -30 69 -138 69 -570 0 -488 -12
-561 -92 -568 -46 -4 -69 27 -89 118 -19 92 -19 821 0 900 18 73 37 109 64
120 29 11 26 11 48 0z"/>
</g>
</svg>
